<svg id="visual" viewBox="0 0 900 600" width="900" height="600" xmlns="http://www.w3.org/2000/svg" xmlns:xlink="http://www.w3.org/1999/xlink" version="1.1"><rect x="0" y="0" width="900" height="600" fill="#fff"></rect><defs><linearGradient id="grad1_0" x1="33.3%" y1="100%" x2="100%" y2="0%"><stop offset="20%" stop-color="#224f63" stop-opacity="1"></stop><stop offset="80%" stop-color="#224f63" stop-opacity="1"></stop></linearGradient></defs><defs><linearGradient id="grad1_1" x1="33.3%" y1="100%" x2="100%" y2="0%"><stop offset="20%" stop-color="#224f63" stop-opacity="1"></stop><stop offset="80%" stop-color="#8fa3ae" stop-opacity="1"></stop></linearGradient></defs><defs><linearGradient id="grad1_2" x1="33.3%" y1="100%" x2="100%" y2="0%"><stop offset="20%" stop-color="#ffffff" stop-opacity="1"></stop><stop offset="80%" stop-color="#8fa3ae" stop-opacity="1"></stop></linearGradient></defs><defs><linearGradient id="grad2_0" x1="0%" y1="100%" x2="66.7%" y2="0%"><stop offset="20%" stop-color="#224f63" stop-opacity="1"></stop><stop offset="80%" stop-color="#224f63" stop-opacity="1"></stop></linearGradient></defs><defs><linearGradient id="grad2_1" x1="0%" y1="100%" x2="66.7%" y2="0%"><stop offset="20%" stop-color="#8fa3ae" stop-opacity="1"></stop><stop offset="80%" stop-color="#224f63" stop-opacity="1"></stop></linearGradient></defs><defs><linearGradient id="grad2_2" x1="0%" y1="100%" x2="66.7%" y2="0%"><stop offset="20%" stop-color="#8fa3ae" stop-opacity="1"></stop><stop offset="80%" stop-color="#ffffff" stop-opacity="1"></stop></linearGradient></defs><g transform="translate(900, 600)"><path d="M-324.5 0C-312.4 -43 -300.3 -86 -275.3 -114C-250.3 -142.1 -212.4 -155.2 -188.1 -188.1C-163.8 -221 -153.2 -273.8 -124.2 -299.8C-95.1 -325.8 -47.6 -325.2 0 -324.5L0 0Z" fill="#c6d0d6"></path><path d="M-216.3 0C-208.3 -28.7 -200.2 -57.3 -183.5 -76C-166.9 -94.7 -141.6 -103.4 -125.4 -125.4C-109.2 -147.3 -102.2 -182.5 -82.8 -199.9C-63.4 -217.2 -31.7 -216.8 0 -216.3L0 0Z" fill="#5a7788"></path><path d="M-108.2 0C-104.1 -14.3 -100.1 -28.7 -91.8 -38C-83.4 -47.4 -70.8 -51.7 -62.7 -62.7C-54.6 -73.7 -51.1 -91.3 -41.4 -99.9C-31.7 -108.6 -15.9 -108.4 0 -108.2L0 0Z" fill="#224f63"></path></g><g transform="translate(0, 0)"><path d="M324.5 0C306.6 39.8 288.8 79.7 267 110.6C245.2 141.5 219.5 163.5 197.3 197.3C175.1 231.1 156.5 276.6 124.2 299.8C91.9 323 45.9 323.7 0 324.5L0 0Z" fill="#c6d0d6"></path><path d="M216.3 0C204.4 26.6 192.5 53.1 178 73.7C163.5 94.3 146.3 109 131.5 131.5C116.7 154 104.3 184.4 82.8 199.9C61.3 215.3 30.6 215.8 0 216.3L0 0Z" fill="#5a7788"></path><path d="M108.2 0C102.2 13.3 96.3 26.6 89 36.9C81.7 47.2 73.2 54.5 65.8 65.8C58.4 77 52.2 92.2 41.4 99.9C30.6 107.7 15.3 107.9 0 108.2L0 0Z" fill="#224f63"></path></g></svg>