<svg id="visual" viewBox="0 0 900 600" width="900" height="600" xmlns="http://www.w3.org/2000/svg" xmlns:xlink="http://www.w3.org/1999/xlink" version="1.1"><g stroke-width="1" stroke-linejoin="bevel"><path d="M478 332L396 334L393 406Z" fill="#94b7c0" stroke="#94b7c0"></path><path d="M393 406L491 421L478 332Z" fill="#94b7c0" stroke="#94b7c0"></path><path d="M393 406L488 468L491 421Z" fill="#0a3f55" stroke="#0a3f55"></path><path d="M478 332L405 236L396 334Z" fill="#355f72" stroke="#355f72"></path><path d="M405 236L327 285L396 334Z" fill="#224f63" stroke="#224f63"></path><path d="M396 334L261 402L393 406Z" fill="#80a5b0" stroke="#80a5b0"></path><path d="M491 421L581 324L478 332Z" fill="#a9cad1" stroke="#a9cad1"></path><path d="M478 332L464 167L405 236Z" fill="#355f72" stroke="#355f72"></path><path d="M608 377L581 324L491 421Z" fill="#d3f0f4" stroke="#d3f0f4"></path><path d="M314 514L372 509L393 406Z" fill="#0a3f55" stroke="#0a3f55"></path><path d="M393 406L372 509L488 468Z" fill="#355f72" stroke="#355f72"></path><path d="M488 468L608 377L491 421Z" fill="#0a3f55" stroke="#0a3f55"></path><path d="M327 285L261 402L396 334Z" fill="#80a5b0" stroke="#80a5b0"></path><path d="M261 402L314 514L393 406Z" fill="#224f63" stroke="#224f63"></path><path d="M616 219L464 167L478 332Z" fill="#80a5b0" stroke="#80a5b0"></path><path d="M405 236L272 190L327 285Z" fill="#224f63" stroke="#224f63"></path><path d="M463 600L570 535L488 468Z" fill="#94b7c0" stroke="#94b7c0"></path><path d="M488 468L570 535L608 377Z" fill="#355f72" stroke="#355f72"></path><path d="M433 600L488 468L372 509Z" fill="#355f72" stroke="#355f72"></path><path d="M272 190L220 315L327 285Z" fill="#5a8190" stroke="#5a8190"></path><path d="M327 285L220 315L261 402Z" fill="#80a5b0" stroke="#80a5b0"></path><path d="M267 600L433 600L372 509Z" fill="#6d93a0" stroke="#6d93a0"></path><path d="M433 600L463 600L488 468Z" fill="#224f63" stroke="#224f63"></path><path d="M608 377L661 307L581 324Z" fill="#5a8190" stroke="#5a8190"></path><path d="M581 324L616 219L478 332Z" fill="#477081" stroke="#477081"></path><path d="M724 413L661 307L608 377Z" fill="#355f72" stroke="#355f72"></path><path d="M661 307L616 219L581 324Z" fill="#bedde2" stroke="#bedde2"></path><path d="M401 90L272 190L405 236Z" fill="#355f72" stroke="#355f72"></path><path d="M616 219L503 116L464 167Z" fill="#6d93a0" stroke="#6d93a0"></path><path d="M464 167L401 90L405 236Z" fill="#d3f0f4" stroke="#d3f0f4"></path><path d="M220 315L165 393L261 402Z" fill="#6d93a0" stroke="#6d93a0"></path><path d="M261 402L166 493L314 514Z" fill="#6d93a0" stroke="#6d93a0"></path><path d="M118 317L165 393L220 315Z" fill="#bedde2" stroke="#bedde2"></path><path d="M503 116L401 90L464 167Z" fill="#80a5b0" stroke="#80a5b0"></path><path d="M209 600L267 600L314 514Z" fill="#a9cad1" stroke="#a9cad1"></path><path d="M314 514L267 600L372 509Z" fill="#bedde2" stroke="#bedde2"></path><path d="M735 497L724 413L608 377Z" fill="#355f72" stroke="#355f72"></path><path d="M716 168L630 135L616 219Z" fill="#bedde2" stroke="#bedde2"></path><path d="M165 393L166 493L261 402Z" fill="#0a3f55" stroke="#0a3f55"></path><path d="M463 600L635 600L570 535Z" fill="#bedde2" stroke="#bedde2"></path><path d="M570 535L735 497L608 377Z" fill="#a9cad1" stroke="#a9cad1"></path><path d="M716 168L616 219L661 307Z" fill="#bedde2" stroke="#bedde2"></path><path d="M616 219L630 135L503 116Z" fill="#224f63" stroke="#224f63"></path><path d="M396 0L324 60L401 90Z" fill="#d3f0f4" stroke="#d3f0f4"></path><path d="M183 67L200 175L272 190Z" fill="#224f63" stroke="#224f63"></path><path d="M272 190L200 175L220 315Z" fill="#224f63" stroke="#224f63"></path><path d="M635 600L735 497L570 535Z" fill="#d3f0f4" stroke="#d3f0f4"></path><path d="M166 493L209 600L314 514Z" fill="#0a3f55" stroke="#0a3f55"></path><path d="M200 175L118 317L220 315Z" fill="#6d93a0" stroke="#6d93a0"></path><path d="M165 393L135 501L166 493Z" fill="#94b7c0" stroke="#94b7c0"></path><path d="M87 375L135 501L165 393Z" fill="#6d93a0" stroke="#6d93a0"></path><path d="M166 493L135 501L209 600Z" fill="#80a5b0" stroke="#80a5b0"></path><path d="M401 90L324 60L272 190Z" fill="#a9cad1" stroke="#a9cad1"></path><path d="M396 0L401 90L534 0Z" fill="#5a8190" stroke="#5a8190"></path><path d="M821 236L716 168L661 307Z" fill="#477081" stroke="#477081"></path><path d="M725 125L716 168L821 236Z" fill="#0a3f55" stroke="#0a3f55"></path><path d="M118 317L87 375L165 393Z" fill="#d3f0f4" stroke="#d3f0f4"></path><path d="M635 600L729 600L735 497Z" fill="#224f63" stroke="#224f63"></path><path d="M534 0L503 116L583 0Z" fill="#80a5b0" stroke="#80a5b0"></path><path d="M534 0L401 90L503 116Z" fill="#a9cad1" stroke="#a9cad1"></path><path d="M824 301L661 307L724 413Z" fill="#94b7c0" stroke="#94b7c0"></path><path d="M716 168L725 125L630 135Z" fill="#d3f0f4" stroke="#d3f0f4"></path><path d="M583 0L503 116L630 135Z" fill="#0a3f55" stroke="#0a3f55"></path><path d="M831 439L724 413L735 497Z" fill="#a9cad1" stroke="#a9cad1"></path><path d="M831 439L824 301L724 413Z" fill="#355f72" stroke="#355f72"></path><path d="M396 0L301 0L324 60Z" fill="#80a5b0" stroke="#80a5b0"></path><path d="M324 60L183 67L272 190Z" fill="#94b7c0" stroke="#94b7c0"></path><path d="M200 175L65 198L118 317Z" fill="#a9cad1" stroke="#a9cad1"></path><path d="M219 0L183 67L324 60Z" fill="#6d93a0" stroke="#6d93a0"></path><path d="M0 270L0 399L87 375Z" fill="#80a5b0" stroke="#80a5b0"></path><path d="M827 526L831 439L735 497Z" fill="#a9cad1" stroke="#a9cad1"></path><path d="M739 0L583 0L630 135Z" fill="#bedde2" stroke="#bedde2"></path><path d="M729 600L772 600L735 497Z" fill="#bedde2" stroke="#bedde2"></path><path d="M824 301L821 236L661 307Z" fill="#0a3f55" stroke="#0a3f55"></path><path d="M900 237L821 236L824 301Z" fill="#6d93a0" stroke="#6d93a0"></path><path d="M102 80L65 198L200 175Z" fill="#a9cad1" stroke="#a9cad1"></path><path d="M772 600L827 526L735 497Z" fill="#355f72" stroke="#355f72"></path><path d="M0 399L135 501L87 375Z" fill="#477081" stroke="#477081"></path><path d="M0 528L74 600L135 501Z" fill="#355f72" stroke="#355f72"></path><path d="M135 501L74 600L209 600Z" fill="#80a5b0" stroke="#80a5b0"></path><path d="M301 0L219 0L324 60Z" fill="#224f63" stroke="#224f63"></path><path d="M183 67L102 80L200 175Z" fill="#477081" stroke="#477081"></path><path d="M0 270L87 375L118 317Z" fill="#d3f0f4" stroke="#d3f0f4"></path><path d="M135 0L102 80L183 67Z" fill="#6d93a0" stroke="#6d93a0"></path><path d="M65 198L0 270L118 317Z" fill="#94b7c0" stroke="#94b7c0"></path><path d="M0 229L0 270L65 198Z" fill="#80a5b0" stroke="#80a5b0"></path><path d="M821 236L783 79L725 125Z" fill="#224f63" stroke="#224f63"></path><path d="M725 125L739 0L630 135Z" fill="#d3f0f4" stroke="#d3f0f4"></path><path d="M0 65L0 229L65 198Z" fill="#477081" stroke="#477081"></path><path d="M900 484L900 368L831 439Z" fill="#477081" stroke="#477081"></path><path d="M831 439L900 368L824 301Z" fill="#a9cad1" stroke="#a9cad1"></path><path d="M821 236L900 137L783 79Z" fill="#a9cad1" stroke="#a9cad1"></path><path d="M900 368L900 334L824 301Z" fill="#6d93a0" stroke="#6d93a0"></path><path d="M0 399L0 528L135 501Z" fill="#80a5b0" stroke="#80a5b0"></path><path d="M827 526L900 484L831 439Z" fill="#bedde2" stroke="#bedde2"></path><path d="M900 600L900 484L827 526Z" fill="#bedde2" stroke="#bedde2"></path><path d="M783 79L739 0L725 125Z" fill="#355f72" stroke="#355f72"></path><path d="M219 0L135 0L183 67Z" fill="#80a5b0" stroke="#80a5b0"></path><path d="M102 80L0 65L65 198Z" fill="#355f72" stroke="#355f72"></path><path d="M900 334L900 237L824 301Z" fill="#94b7c0" stroke="#94b7c0"></path><path d="M783 79L805 0L739 0Z" fill="#0a3f55" stroke="#0a3f55"></path><path d="M0 528L0 600L74 600Z" fill="#5a8190" stroke="#5a8190"></path><path d="M772 600L900 600L827 526Z" fill="#224f63" stroke="#224f63"></path><path d="M900 237L900 137L821 236Z" fill="#bedde2" stroke="#bedde2"></path><path d="M900 0L805 0L783 79Z" fill="#94b7c0" stroke="#94b7c0"></path><path d="M0 0L0 65L102 80Z" fill="#bedde2" stroke="#bedde2"></path><path d="M135 0L0 0L102 80Z" fill="#94b7c0" stroke="#94b7c0"></path><path d="M900 137L900 0L783 79Z" fill="#5a8190" stroke="#5a8190"></path></g></svg>