<svg id="visual" viewBox="0 0 900 450" width="900" height="450" xmlns="http://www.w3.org/2000/svg" xmlns:xlink="http://www.w3.org/1999/xlink" version="1.1"><g stroke-width="1" stroke-linejoin="bevel"><path d="M414 288L363 325L462 330Z" fill="#15384f" stroke="#15384f"></path><path d="M462 330L504 284L414 288Z" fill="#205a7a" stroke="#205a7a"></path><path d="M363 325L372 450L462 330Z" fill="#112e42" stroke="#112e42"></path><path d="M462 330L596 331L504 284Z" fill="#1d4e6b" stroke="#1d4e6b"></path><path d="M363 325L298 386L372 450Z" fill="#277297" stroke="#277297"></path><path d="M365 167L282 305L363 325Z" fill="#00101c" stroke="#00101c"></path><path d="M363 325L282 305L298 386Z" fill="#297ea6" stroke="#297ea6"></path><path d="M372 450L497 450L462 330Z" fill="#19435d" stroke="#19435d"></path><path d="M504 284L524 216L414 288Z" fill="#112e42" stroke="#112e42"></path><path d="M414 288L365 167L363 325Z" fill="#19435d" stroke="#19435d"></path><path d="M596 238L524 216L504 284Z" fill="#277297" stroke="#277297"></path><path d="M524 216L365 167L414 288Z" fill="#0c2435" stroke="#0c2435"></path><path d="M497 450L596 331L462 330Z" fill="#1d4e6b" stroke="#1d4e6b"></path><path d="M235 450L264 450L298 386Z" fill="#19435d" stroke="#19435d"></path><path d="M298 386L264 450L372 450Z" fill="#081a28" stroke="#081a28"></path><path d="M198 307L220 330L282 305Z" fill="#112e42" stroke="#112e42"></path><path d="M282 305L220 330L298 386Z" fill="#1d4e6b" stroke="#1d4e6b"></path><path d="M365 167L314 167L282 305Z" fill="#112e42" stroke="#112e42"></path><path d="M220 330L235 450L298 386Z" fill="#277297" stroke="#277297"></path><path d="M596 331L596 238L504 284Z" fill="#15384f" stroke="#15384f"></path><path d="M524 216L494 122L365 167Z" fill="#00101c" stroke="#00101c"></path><path d="M497 450L591 450L596 331Z" fill="#205a7a" stroke="#205a7a"></path><path d="M167 185L198 307L282 305Z" fill="#0c2435" stroke="#0c2435"></path><path d="M220 330L114 370L235 450Z" fill="#00101c" stroke="#00101c"></path><path d="M623 167L494 122L524 216Z" fill="#15384f" stroke="#15384f"></path><path d="M365 167L287 58L314 167Z" fill="#112e42" stroke="#112e42"></path><path d="M494 122L428 100L365 167Z" fill="#1d4e6b" stroke="#1d4e6b"></path><path d="M596 331L660 325L596 238Z" fill="#246688" stroke="#246688"></path><path d="M591 450L660 325L596 331Z" fill="#112e42" stroke="#112e42"></path><path d="M671 194L623 167L596 238Z" fill="#205a7a" stroke="#205a7a"></path><path d="M596 238L623 167L524 216Z" fill="#19435d" stroke="#19435d"></path><path d="M314 167L167 185L282 305Z" fill="#246688" stroke="#246688"></path><path d="M239 87L167 185L314 167Z" fill="#15384f" stroke="#15384f"></path><path d="M660 325L671 194L596 238Z" fill="#19435d" stroke="#19435d"></path><path d="M198 307L114 370L220 330Z" fill="#205a7a" stroke="#205a7a"></path><path d="M90 238L114 370L198 307Z" fill="#246688" stroke="#246688"></path><path d="M287 58L239 87L314 167Z" fill="#246688" stroke="#246688"></path><path d="M428 100L287 58L365 167Z" fill="#1d4e6b" stroke="#1d4e6b"></path><path d="M114 370L113 450L235 450Z" fill="#19435d" stroke="#19435d"></path><path d="M734 450L736 301L660 325Z" fill="#246688" stroke="#246688"></path><path d="M660 325L736 301L671 194Z" fill="#205a7a" stroke="#205a7a"></path><path d="M91 149L90 238L167 185Z" fill="#19435d" stroke="#19435d"></path><path d="M167 185L90 238L198 307Z" fill="#112e42" stroke="#112e42"></path><path d="M114 370L0 378L113 450Z" fill="#1d4e6b" stroke="#1d4e6b"></path><path d="M287 58L160 0L239 87Z" fill="#15384f" stroke="#15384f"></path><path d="M428 100L380 0L287 58Z" fill="#112e42" stroke="#112e42"></path><path d="M460 0L380 0L428 100Z" fill="#277297" stroke="#277297"></path><path d="M460 0L428 100L494 122Z" fill="#112e42" stroke="#112e42"></path><path d="M460 0L494 122L561 0Z" fill="#1d4e6b" stroke="#1d4e6b"></path><path d="M591 450L734 450L660 325Z" fill="#297ea6" stroke="#297ea6"></path><path d="M623 53L494 122L623 167Z" fill="#246688" stroke="#246688"></path><path d="M380 0L306 0L287 58Z" fill="#205a7a" stroke="#205a7a"></path><path d="M239 87L136 102L167 185Z" fill="#297ea6" stroke="#297ea6"></path><path d="M730 58L623 53L623 167Z" fill="#0c2435" stroke="#0c2435"></path><path d="M730 58L623 167L671 194Z" fill="#277297" stroke="#277297"></path><path d="M160 0L136 102L239 87Z" fill="#277297" stroke="#277297"></path><path d="M623 53L561 0L494 122Z" fill="#112e42" stroke="#112e42"></path><path d="M136 102L91 149L167 185Z" fill="#0c2435" stroke="#0c2435"></path><path d="M827 289L793 216L736 301Z" fill="#00101c" stroke="#00101c"></path><path d="M736 301L793 216L671 194Z" fill="#246688" stroke="#246688"></path><path d="M734 450L824 372L736 301Z" fill="#15384f" stroke="#15384f"></path><path d="M0 262L114 370L90 238Z" fill="#112e42" stroke="#112e42"></path><path d="M0 262L0 378L114 370Z" fill="#00101c" stroke="#00101c"></path><path d="M824 372L827 289L736 301Z" fill="#081a28" stroke="#081a28"></path><path d="M0 166L0 262L90 238Z" fill="#00101c" stroke="#00101c"></path><path d="M306 0L160 0L287 58Z" fill="#0c2435" stroke="#0c2435"></path><path d="M136 102L0 88L91 149Z" fill="#15384f" stroke="#15384f"></path><path d="M91 149L0 166L90 238Z" fill="#246688" stroke="#246688"></path><path d="M790 75L671 194L793 216Z" fill="#15384f" stroke="#15384f"></path><path d="M790 75L730 58L671 194Z" fill="#246688" stroke="#246688"></path><path d="M623 53L669 0L561 0Z" fill="#112e42" stroke="#112e42"></path><path d="M730 58L669 0L623 53Z" fill="#277297" stroke="#277297"></path><path d="M0 378L0 450L113 450Z" fill="#205a7a" stroke="#205a7a"></path><path d="M734 450L838 450L824 372Z" fill="#297ea6" stroke="#297ea6"></path><path d="M824 372L900 305L827 289Z" fill="#19435d" stroke="#19435d"></path><path d="M160 0L130 0L136 102Z" fill="#19435d" stroke="#19435d"></path><path d="M0 88L0 166L91 149Z" fill="#00101c" stroke="#00101c"></path><path d="M900 181L790 75L793 216Z" fill="#205a7a" stroke="#205a7a"></path><path d="M730 58L839 0L669 0Z" fill="#0c2435" stroke="#0c2435"></path><path d="M130 0L0 88L136 102Z" fill="#277297" stroke="#277297"></path><path d="M900 390L900 305L824 372Z" fill="#112e42" stroke="#112e42"></path><path d="M827 289L900 181L793 216Z" fill="#15384f" stroke="#15384f"></path><path d="M838 450L900 390L824 372Z" fill="#00101c" stroke="#00101c"></path><path d="M838 450L900 450L900 390Z" fill="#1d4e6b" stroke="#1d4e6b"></path><path d="M900 305L900 181L827 289Z" fill="#00101c" stroke="#00101c"></path><path d="M130 0L0 0L0 88Z" fill="#1d4e6b" stroke="#1d4e6b"></path><path d="M900 83L839 0L790 75Z" fill="#081a28" stroke="#081a28"></path><path d="M790 75L839 0L730 58Z" fill="#15384f" stroke="#15384f"></path><path d="M900 181L900 83L790 75Z" fill="#277297" stroke="#277297"></path><path d="M900 83L900 0L839 0Z" fill="#1d4e6b" stroke="#1d4e6b"></path></g></svg>