<svg id="visual" viewBox="0 0 428 926" width="428" height="926" xmlns="http://www.w3.org/2000/svg" xmlns:xlink="http://www.w3.org/1999/xlink" version="1.1"><g stroke-width="1" stroke-linejoin="bevel"><path d="M221.2 512.3L226.8 563.6L268.8 513.3Z" fill="#224f63" stroke="#224f63"></path><path d="M209.8 564.9L227.2 569.6L226.8 563.6Z" fill="#d3f0f4" stroke="#d3f0f4"></path><path d="M226.8 563.6L300.3 522.6L268.8 513.3Z" fill="#224f63" stroke="#224f63"></path><path d="M221.2 512.3L209.8 564.9L226.8 563.6Z" fill="#a9cad1" stroke="#a9cad1"></path><path d="M268.8 513.3L276.8 501L221.2 512.3Z" fill="#0a3f55" stroke="#0a3f55"></path><path d="M300.3 522.6L283.3 503.3L268.8 513.3Z" fill="#477081" stroke="#477081"></path><path d="M268.8 513.3L283.3 503.3L276.8 501Z" fill="#5a8190" stroke="#5a8190"></path><path d="M227.2 569.6L300.3 522.6L226.8 563.6Z" fill="#94b7c0" stroke="#94b7c0"></path><path d="M210.2 393.7L165.2 491L221.2 512.3Z" fill="#94b7c0" stroke="#94b7c0"></path><path d="M221.2 512.3L165.2 491L209.8 564.9Z" fill="#477081" stroke="#477081"></path><path d="M283.3 503.3L272.3 448L276.8 501Z" fill="#224f63" stroke="#224f63"></path><path d="M276.8 501L272.3 448L221.2 512.3Z" fill="#477081" stroke="#477081"></path><path d="M280.3 435.7L272.3 448L349.9 470.3Z" fill="#6d93a0" stroke="#6d93a0"></path><path d="M165.2 491L156.7 571.6L209.8 564.9Z" fill="#355f72" stroke="#355f72"></path><path d="M206.8 628.2L276.3 627.9L227.2 569.6Z" fill="#80a5b0" stroke="#80a5b0"></path><path d="M206.8 628.2L227.2 569.6L209.8 564.9Z" fill="#80a5b0" stroke="#80a5b0"></path><path d="M227.2 569.6L276.3 627.9L300.3 522.6Z" fill="#bedde2" stroke="#bedde2"></path><path d="M184.2 630.9L206.8 628.2L209.8 564.9Z" fill="#5a8190" stroke="#5a8190"></path><path d="M349.9 470.3L272.3 448L283.3 503.3Z" fill="#d3f0f4" stroke="#d3f0f4"></path><path d="M272.3 448L210.2 393.7L221.2 512.3Z" fill="#80a5b0" stroke="#80a5b0"></path><path d="M276.3 627.9L343.4 576.9L300.3 522.6Z" fill="#d3f0f4" stroke="#d3f0f4"></path><path d="M300.3 522.6L349.9 470.3L283.3 503.3Z" fill="#d3f0f4" stroke="#d3f0f4"></path><path d="M206.8 628.2L220.2 643.2L276.3 627.9Z" fill="#5a8190" stroke="#5a8190"></path><path d="M156.7 571.6L184.2 630.9L209.8 564.9Z" fill="#0a3f55" stroke="#0a3f55"></path><path d="M206.8 628.2L184.2 630.9L220.2 643.2Z" fill="#477081" stroke="#477081"></path><path d="M127.1 448.7L142.7 487L165.2 491Z" fill="#0a3f55" stroke="#0a3f55"></path><path d="M165.2 491L127.1 533.6L156.7 571.6Z" fill="#a9cad1" stroke="#a9cad1"></path><path d="M341.9 673.2L320.3 621.2L276.3 627.9Z" fill="#d3f0f4" stroke="#d3f0f4"></path><path d="M276.3 627.9L320.3 621.2L343.4 576.9Z" fill="#477081" stroke="#477081"></path><path d="M320.3 621.2L353.9 573.6L343.4 576.9Z" fill="#80a5b0" stroke="#80a5b0"></path><path d="M343.4 576.9L353.9 573.6L300.3 522.6Z" fill="#d3f0f4" stroke="#d3f0f4"></path><path d="M142.7 487L127.1 533.6L165.2 491Z" fill="#5a8190" stroke="#5a8190"></path><path d="M156.7 571.6L122.1 594.9L184.2 630.9Z" fill="#5a8190" stroke="#5a8190"></path><path d="M398.4 531.6L349.9 470.3L300.3 522.6Z" fill="#a9cad1" stroke="#a9cad1"></path><path d="M320.3 621.2L364.9 571.9L353.9 573.6Z" fill="#80a5b0" stroke="#80a5b0"></path><path d="M353.9 573.6L398.4 531.6L300.3 522.6Z" fill="#80a5b0" stroke="#80a5b0"></path><path d="M127.1 533.6L127.7 584.9L156.7 571.6Z" fill="#6d93a0" stroke="#6d93a0"></path><path d="M58.6 613.9L122.1 594.9L127.7 584.9Z" fill="#94b7c0" stroke="#94b7c0"></path><path d="M127.7 584.9L122.1 594.9L156.7 571.6Z" fill="#224f63" stroke="#224f63"></path><path d="M350.4 430.7L344.9 430L349.9 470.3Z" fill="#d3f0f4" stroke="#d3f0f4"></path><path d="M349.9 470.3L344.9 430L280.3 435.7Z" fill="#224f63" stroke="#224f63"></path><path d="M249.3 366.4L210.2 393.7L280.3 435.7Z" fill="#80a5b0" stroke="#80a5b0"></path><path d="M280.3 435.7L210.2 393.7L272.3 448Z" fill="#0a3f55" stroke="#0a3f55"></path><path d="M210.2 393.7L127.1 448.7L165.2 491Z" fill="#d3f0f4" stroke="#d3f0f4"></path><path d="M142.7 487L104.7 492.3L127.1 533.6Z" fill="#224f63" stroke="#224f63"></path><path d="M127.1 533.6L58.6 613.9L127.7 584.9Z" fill="#bedde2" stroke="#bedde2"></path><path d="M127.1 448.7L104.7 492.3L142.7 487Z" fill="#d3f0f4" stroke="#d3f0f4"></path><path d="M391.4 456L350.4 430.7L349.9 470.3Z" fill="#224f63" stroke="#224f63"></path><path d="M216.8 349.1L201.8 386.7L210.2 393.7Z" fill="#477081" stroke="#477081"></path><path d="M122.1 594.9L141.7 647.2L184.2 630.9Z" fill="#94b7c0" stroke="#94b7c0"></path><path d="M211.2 723.5L232.8 716.5L220.2 643.2Z" fill="#a9cad1" stroke="#a9cad1"></path><path d="M39.6 487L95.1 503.3L104.7 492.3Z" fill="#bedde2" stroke="#bedde2"></path><path d="M104.7 492.3L95.1 503.3L127.1 533.6Z" fill="#355f72" stroke="#355f72"></path><path d="M364.9 571.9L398.4 531.6L353.9 573.6Z" fill="#80a5b0" stroke="#80a5b0"></path><path d="M326.9 392.4L280.3 435.7L344.9 430Z" fill="#5a8190" stroke="#5a8190"></path><path d="M210.2 393.7L201.8 386.7L127.1 448.7Z" fill="#80a5b0" stroke="#80a5b0"></path><path d="M133.1 700.8L130.1 642.2L58.1 698.5Z" fill="#d3f0f4" stroke="#d3f0f4"></path><path d="M122.1 594.9L130.1 642.2L141.7 647.2Z" fill="#0a3f55" stroke="#0a3f55"></path><path d="M398.4 531.6L402.4 524.3L349.9 470.3Z" fill="#477081" stroke="#477081"></path><path d="M350.4 430.7L326.9 392.4L344.9 430Z" fill="#477081" stroke="#477081"></path><path d="M402.4 524.3L391.4 456L349.9 470.3Z" fill="#bedde2" stroke="#bedde2"></path><path d="M388.4 392.4L324.3 351.1L326.9 392.4Z" fill="#477081" stroke="#477081"></path><path d="M232.8 716.5L271.3 701.8L220.2 643.2Z" fill="#80a5b0" stroke="#80a5b0"></path><path d="M220.2 643.2L271.3 701.8L276.3 627.9Z" fill="#5a8190" stroke="#5a8190"></path><path d="M320.3 621.2L378.4 663.5L364.9 571.9Z" fill="#94b7c0" stroke="#94b7c0"></path><path d="M428 585.9L428 534.6L398.4 531.6Z" fill="#0a3f55" stroke="#0a3f55"></path><path d="M297.3 702.5L341.9 673.2L276.3 627.9Z" fill="#224f63" stroke="#224f63"></path><path d="M398.4 531.6L428 534.6L402.4 524.3Z" fill="#477081" stroke="#477081"></path><path d="M312.9 378.7L271.8 369.4L280.3 435.7Z" fill="#94b7c0" stroke="#94b7c0"></path><path d="M271.8 369.4L249.3 366.4L280.3 435.7Z" fill="#d3f0f4" stroke="#d3f0f4"></path><path d="M326.9 392.4L312.9 378.7L280.3 435.7Z" fill="#477081" stroke="#477081"></path><path d="M271.3 701.8L297.3 702.5L276.3 627.9Z" fill="#0a3f55" stroke="#0a3f55"></path><path d="M211.2 723.5L184.2 630.9L140.7 705.5Z" fill="#a9cad1" stroke="#a9cad1"></path><path d="M211.2 723.5L220.2 643.2L184.2 630.9Z" fill="#a9cad1" stroke="#a9cad1"></path><path d="M320.9 726.8L323.9 713.5L297.3 702.5Z" fill="#477081" stroke="#477081"></path><path d="M144.7 366.4L129.1 393.4L201.8 386.7Z" fill="#a9cad1" stroke="#a9cad1"></path><path d="M201.8 386.7L129.1 393.4L127.1 448.7Z" fill="#0a3f55" stroke="#0a3f55"></path><path d="M127.1 448.7L71.1 425L104.7 492.3Z" fill="#355f72" stroke="#355f72"></path><path d="M428 585.9L398.4 531.6L364.9 571.9Z" fill="#355f72" stroke="#355f72"></path><path d="M402.4 524.3L428 512.3L391.4 456Z" fill="#94b7c0" stroke="#94b7c0"></path><path d="M428 534.6L428 512.3L402.4 524.3Z" fill="#6d93a0" stroke="#6d93a0"></path><path d="M406.4 740.8L378.4 663.5L341.9 673.2Z" fill="#477081" stroke="#477081"></path><path d="M341.9 673.2L378.4 663.5L320.3 621.2Z" fill="#d3f0f4" stroke="#d3f0f4"></path><path d="M129.1 393.4L116.7 398.7L127.1 448.7Z" fill="#6d93a0" stroke="#6d93a0"></path><path d="M270.8 309.8L216.8 349.1L249.3 366.4Z" fill="#355f72" stroke="#355f72"></path><path d="M249.3 366.4L216.8 349.1L210.2 393.7Z" fill="#6d93a0" stroke="#6d93a0"></path><path d="M129.1 393.4L144.7 366.4L116.7 398.7Z" fill="#224f63" stroke="#224f63"></path><path d="M270.8 309.8L249.3 366.4L271.8 369.4Z" fill="#bedde2" stroke="#bedde2"></path><path d="M428 619.2L428 585.9L364.9 571.9Z" fill="#6d93a0" stroke="#6d93a0"></path><path d="M216.8 349.1L197.2 351.4L201.8 386.7Z" fill="#80a5b0" stroke="#80a5b0"></path><path d="M140.7 705.5L184.2 630.9L141.7 647.2Z" fill="#80a5b0" stroke="#80a5b0"></path><path d="M320.9 726.8L297.3 702.5L275.8 770.1Z" fill="#a9cad1" stroke="#a9cad1"></path><path d="M297.3 702.5L271.3 701.8L275.8 770.1Z" fill="#477081" stroke="#477081"></path><path d="M297.3 702.5L323.9 713.5L341.9 673.2Z" fill="#224f63" stroke="#224f63"></path><path d="M171.2 348.1L144.7 366.4L201.8 386.7Z" fill="#80a5b0" stroke="#80a5b0"></path><path d="M133.1 700.8L141.7 647.2L130.1 642.2Z" fill="#224f63" stroke="#224f63"></path><path d="M133.1 700.8L140.7 705.5L141.7 647.2Z" fill="#6d93a0" stroke="#6d93a0"></path><path d="M58.6 613.9L130.1 642.2L122.1 594.9Z" fill="#355f72" stroke="#355f72"></path><path d="M378.4 663.5L413.4 641.2L364.9 571.9Z" fill="#a9cad1" stroke="#a9cad1"></path><path d="M428 722.8L413.4 641.2L378.4 663.5Z" fill="#477081" stroke="#477081"></path><path d="M326.9 392.4L324.3 351.1L312.9 378.7Z" fill="#477081" stroke="#477081"></path><path d="M312.9 378.7L324.3 351.1L271.8 369.4Z" fill="#5a8190" stroke="#5a8190"></path><path d="M388.4 392.4L326.9 392.4L350.4 430.7Z" fill="#355f72" stroke="#355f72"></path><path d="M388.4 392.4L350.4 430.7L391.4 456Z" fill="#355f72" stroke="#355f72"></path><path d="M165.7 301.8L171.2 348.1L197.2 351.4Z" fill="#bedde2" stroke="#bedde2"></path><path d="M197.2 351.4L171.2 348.1L201.8 386.7Z" fill="#355f72" stroke="#355f72"></path><path d="M165.7 301.8L197.2 351.4L198.2 284.8Z" fill="#6d93a0" stroke="#6d93a0"></path><path d="M413.4 641.2L428 619.2L364.9 571.9Z" fill="#a9cad1" stroke="#a9cad1"></path><path d="M18.6 519.6L58.6 613.9L95.1 503.3Z" fill="#355f72" stroke="#355f72"></path><path d="M95.1 503.3L58.6 613.9L127.1 533.6Z" fill="#a9cad1" stroke="#a9cad1"></path><path d="M428 429L388.4 392.4L391.4 456Z" fill="#94b7c0" stroke="#94b7c0"></path><path d="M78.6 386.4L71.1 425L116.7 398.7Z" fill="#a9cad1" stroke="#a9cad1"></path><path d="M116.7 398.7L71.1 425L127.1 448.7Z" fill="#a9cad1" stroke="#a9cad1"></path><path d="M266.8 769.8L271.3 701.8L232.8 716.5Z" fill="#5a8190" stroke="#5a8190"></path><path d="M323.9 713.5L406.4 740.8L341.9 673.2Z" fill="#477081" stroke="#477081"></path><path d="M71.1 425L39.6 487L104.7 492.3Z" fill="#bedde2" stroke="#bedde2"></path><path d="M428 512.3L428 429L391.4 456Z" fill="#5a8190" stroke="#5a8190"></path><path d="M21.6 434.7L27.6 485.3L39.6 487Z" fill="#a9cad1" stroke="#a9cad1"></path><path d="M39.6 487L18.6 519.6L95.1 503.3Z" fill="#5a8190" stroke="#5a8190"></path><path d="M82.6 335.1L78.6 386.4L116.7 398.7Z" fill="#bedde2" stroke="#bedde2"></path><path d="M71.1 425L21.6 434.7L39.6 487Z" fill="#bedde2" stroke="#bedde2"></path><path d="M82.6 335.1L116.7 398.7L144.7 366.4Z" fill="#94b7c0" stroke="#94b7c0"></path><path d="M428 429L428 403.7L388.4 392.4Z" fill="#224f63" stroke="#224f63"></path><path d="M388.4 392.4L343.4 311.8L324.3 351.1Z" fill="#477081" stroke="#477081"></path><path d="M27.6 485.3L18.6 519.6L39.6 487Z" fill="#477081" stroke="#477081"></path><path d="M140.7 705.5L198.2 757.8L211.2 723.5Z" fill="#6d93a0" stroke="#6d93a0"></path><path d="M211.2 723.5L198.2 757.8L232.8 716.5Z" fill="#355f72" stroke="#355f72"></path><path d="M157.7 780.1L198.2 757.8L140.7 705.5Z" fill="#94b7c0" stroke="#94b7c0"></path><path d="M324.3 298.8L270.8 309.8L324.3 351.1Z" fill="#80a5b0" stroke="#80a5b0"></path><path d="M324.3 351.1L270.8 309.8L271.8 369.4Z" fill="#355f72" stroke="#355f72"></path><path d="M198.2 757.8L266.8 769.8L232.8 716.5Z" fill="#94b7c0" stroke="#94b7c0"></path><path d="M266.8 769.8L275.8 770.1L271.3 701.8Z" fill="#80a5b0" stroke="#80a5b0"></path><path d="M389.4 754.1L406.4 740.8L323.9 713.5Z" fill="#a9cad1" stroke="#a9cad1"></path><path d="M428 403.7L428 382.4L388.4 392.4Z" fill="#224f63" stroke="#224f63"></path><path d="M78.6 386.4L21.6 434.7L71.1 425Z" fill="#6d93a0" stroke="#6d93a0"></path><path d="M0 442.7L0 547.3L18.6 519.6Z" fill="#80a5b0" stroke="#80a5b0"></path><path d="M0 442.7L18.6 519.6L27.6 485.3Z" fill="#80a5b0" stroke="#80a5b0"></path><path d="M18.6 519.6L0 565.6L58.6 613.9Z" fill="#477081" stroke="#477081"></path><path d="M58.6 613.9L58.1 698.5L130.1 642.2Z" fill="#477081" stroke="#477081"></path><path d="M418.4 361.1L343.4 311.8L388.4 392.4Z" fill="#bedde2" stroke="#bedde2"></path><path d="M0 547.3L0 565.6L18.6 519.6Z" fill="#94b7c0" stroke="#94b7c0"></path><path d="M428 382.4L418.4 361.1L388.4 392.4Z" fill="#6d93a0" stroke="#6d93a0"></path><path d="M198.2 284.8L197.2 351.4L216.8 349.1Z" fill="#bedde2" stroke="#bedde2"></path><path d="M171.2 348.1L128.7 293.1L144.7 366.4Z" fill="#d3f0f4" stroke="#d3f0f4"></path><path d="M0 398.4L0 426L21.6 434.7Z" fill="#d3f0f4" stroke="#d3f0f4"></path><path d="M198.2 284.8L216.8 349.1L270.8 309.8Z" fill="#5a8190" stroke="#5a8190"></path><path d="M39.6 703.8L58.1 698.5L18.6 677.2Z" fill="#6d93a0" stroke="#6d93a0"></path><path d="M110.7 771.8L157.7 780.1L140.7 705.5Z" fill="#d3f0f4" stroke="#d3f0f4"></path><path d="M340.9 285.1L324.3 298.8L343.4 311.8Z" fill="#5a8190" stroke="#5a8190"></path><path d="M343.4 311.8L324.3 298.8L324.3 351.1Z" fill="#bedde2" stroke="#bedde2"></path><path d="M0 565.6L0 607.9L58.6 613.9Z" fill="#bedde2" stroke="#bedde2"></path><path d="M225.2 245.5L198.2 284.8L270.8 309.8Z" fill="#94b7c0" stroke="#94b7c0"></path><path d="M0 607.9L0 617.2L58.6 613.9Z" fill="#224f63" stroke="#224f63"></path><path d="M128.7 293.1L171.2 348.1L165.7 301.8Z" fill="#6d93a0" stroke="#6d93a0"></path><path d="M128.7 293.1L82.6 335.1L144.7 366.4Z" fill="#80a5b0" stroke="#80a5b0"></path><path d="M340.9 285.1L303.9 284.8L324.3 298.8Z" fill="#a9cad1" stroke="#a9cad1"></path><path d="M324.3 298.8L303.9 284.8L270.8 309.8Z" fill="#224f63" stroke="#224f63"></path><path d="M110.7 771.8L140.7 705.5L133.1 700.8Z" fill="#d3f0f4" stroke="#d3f0f4"></path><path d="M198.2 757.8L242.8 824.4L266.8 769.8Z" fill="#bedde2" stroke="#bedde2"></path><path d="M294.3 809.1L301.3 805.4L275.8 770.1Z" fill="#6d93a0" stroke="#6d93a0"></path><path d="M39.6 703.8L49.6 708.5L58.1 698.5Z" fill="#0a3f55" stroke="#0a3f55"></path><path d="M58.1 698.5L110.7 771.8L133.1 700.8Z" fill="#0a3f55" stroke="#0a3f55"></path><path d="M389.4 754.1L323.9 713.5L320.9 726.8Z" fill="#bedde2" stroke="#bedde2"></path><path d="M413.4 641.2L428 722.8L428 619.2Z" fill="#224f63" stroke="#224f63"></path><path d="M0 426L0 442.7L21.6 434.7Z" fill="#5a8190" stroke="#5a8190"></path><path d="M21.6 434.7L0 442.7L27.6 485.3Z" fill="#6d93a0" stroke="#6d93a0"></path><path d="M406.4 740.8L428 722.8L378.4 663.5Z" fill="#94b7c0" stroke="#94b7c0"></path><path d="M372.4 794.4L389.4 754.1L320.9 726.8Z" fill="#6d93a0" stroke="#6d93a0"></path><path d="M406.4 740.8L428 723.5L428 722.8Z" fill="#224f63" stroke="#224f63"></path><path d="M18.6 677.2L58.1 698.5L58.6 613.9Z" fill="#94b7c0" stroke="#94b7c0"></path><path d="M110.7 771.8L157.2 791.1L157.7 780.1Z" fill="#d3f0f4" stroke="#d3f0f4"></path><path d="M0 617.2L18.6 677.2L58.6 613.9Z" fill="#d3f0f4" stroke="#d3f0f4"></path><path d="M0 398.4L21.6 434.7L78.6 386.4Z" fill="#355f72" stroke="#355f72"></path><path d="M391.4 258.5L340.9 285.1L343.4 311.8Z" fill="#d3f0f4" stroke="#d3f0f4"></path><path d="M128.1 276.8L128.7 293.1L165.7 301.8Z" fill="#a9cad1" stroke="#a9cad1"></path><path d="M110.7 771.8L58.1 698.5L49.6 708.5Z" fill="#477081" stroke="#477081"></path><path d="M157.7 780.1L157.2 791.1L198.2 757.8Z" fill="#6d93a0" stroke="#6d93a0"></path><path d="M275.8 770.1L301.3 805.4L320.9 726.8Z" fill="#477081" stroke="#477081"></path><path d="M18.6 757.1L110.7 771.8L49.6 708.5Z" fill="#6d93a0" stroke="#6d93a0"></path><path d="M294.3 809.1L275.8 770.1L266.8 769.8Z" fill="#5a8190" stroke="#5a8190"></path><path d="M428 382.4L428 329.1L418.4 361.1Z" fill="#0a3f55" stroke="#0a3f55"></path><path d="M418.4 361.1L428 329.1L343.4 311.8Z" fill="#0a3f55" stroke="#0a3f55"></path><path d="M242.8 824.4L294.3 809.1L266.8 769.8Z" fill="#0a3f55" stroke="#0a3f55"></path><path d="M82.6 335.1L0 398.4L78.6 386.4Z" fill="#6d93a0" stroke="#6d93a0"></path><path d="M0 303.8L0 398.4L82.6 335.1Z" fill="#d3f0f4" stroke="#d3f0f4"></path><path d="M140.7 245.5L128.1 276.8L165.7 301.8Z" fill="#6d93a0" stroke="#6d93a0"></path><path d="M128.7 293.1L88.1 296.1L82.6 335.1Z" fill="#0a3f55" stroke="#0a3f55"></path><path d="M140.7 245.5L165.7 301.8L198.2 284.8Z" fill="#5a8190" stroke="#5a8190"></path><path d="M284.3 236.5L270.8 309.8L303.9 284.8Z" fill="#94b7c0" stroke="#94b7c0"></path><path d="M341.9 204.2L305.9 258.5L340.9 285.1Z" fill="#477081" stroke="#477081"></path><path d="M340.9 285.1L305.9 258.5L303.9 284.8Z" fill="#a9cad1" stroke="#a9cad1"></path><path d="M128.1 276.8L88.1 296.1L128.7 293.1Z" fill="#477081" stroke="#477081"></path><path d="M361.9 821.1L372.4 794.4L301.3 805.4Z" fill="#94b7c0" stroke="#94b7c0"></path><path d="M301.3 805.4L372.4 794.4L320.9 726.8Z" fill="#6d93a0" stroke="#6d93a0"></path><path d="M389.4 754.1L428 809.1L406.4 740.8Z" fill="#224f63" stroke="#224f63"></path><path d="M406.4 740.8L428 809.1L428 723.5Z" fill="#94b7c0" stroke="#94b7c0"></path><path d="M157.2 791.1L242.8 824.4L198.2 757.8Z" fill="#224f63" stroke="#224f63"></path><path d="M334.9 834.4L361.9 821.1L301.3 805.4Z" fill="#224f63" stroke="#224f63"></path><path d="M284.3 236.5L225.2 245.5L270.8 309.8Z" fill="#bedde2" stroke="#bedde2"></path><path d="M428 329.1L428 309.8L343.4 311.8Z" fill="#d3f0f4" stroke="#d3f0f4"></path><path d="M18.6 677.2L0 696.5L39.6 703.8Z" fill="#224f63" stroke="#224f63"></path><path d="M39.6 703.8L18.6 757.1L49.6 708.5Z" fill="#5a8190" stroke="#5a8190"></path><path d="M0 617.2L0 696.5L18.6 677.2Z" fill="#0a3f55" stroke="#0a3f55"></path><path d="M341.9 204.2L284.3 236.5L305.9 258.5Z" fill="#a9cad1" stroke="#a9cad1"></path><path d="M305.9 258.5L284.3 236.5L303.9 284.8Z" fill="#224f63" stroke="#224f63"></path><path d="M0 696.5L0 721.8L39.6 703.8Z" fill="#a9cad1" stroke="#a9cad1"></path><path d="M225.2 245.5L140.7 245.5L198.2 284.8Z" fill="#d3f0f4" stroke="#d3f0f4"></path><path d="M97.1 248.5L59.6 281.8L88.1 296.1Z" fill="#d3f0f4" stroke="#d3f0f4"></path><path d="M202.8 182.2L140.7 245.5L225.2 245.5Z" fill="#5a8190" stroke="#5a8190"></path><path d="M334.9 834.4L301.3 805.4L294.3 809.1Z" fill="#94b7c0" stroke="#94b7c0"></path><path d="M372.4 794.4L428 809.1L389.4 754.1Z" fill="#0a3f55" stroke="#0a3f55"></path><path d="M110.7 771.8L116.7 818.4L157.2 791.1Z" fill="#224f63" stroke="#224f63"></path><path d="M157.2 791.1L173.2 867.4L242.8 824.4Z" fill="#5a8190" stroke="#5a8190"></path><path d="M97.1 821.1L116.7 818.4L110.7 771.8Z" fill="#0a3f55" stroke="#0a3f55"></path><path d="M272.3 879.7L334.9 834.4L294.3 809.1Z" fill="#a9cad1" stroke="#a9cad1"></path><path d="M272.3 879.7L294.3 809.1L242.8 824.4Z" fill="#0a3f55" stroke="#0a3f55"></path><path d="M428 309.8L391.4 258.5L343.4 311.8Z" fill="#bedde2" stroke="#bedde2"></path><path d="M97.1 248.5L88.1 296.1L128.1 276.8Z" fill="#bedde2" stroke="#bedde2"></path><path d="M88.1 296.1L59.6 281.8L82.6 335.1Z" fill="#d3f0f4" stroke="#d3f0f4"></path><path d="M0 721.8L18.6 757.1L39.6 703.8Z" fill="#0a3f55" stroke="#0a3f55"></path><path d="M66.6 829.4L97.1 821.1L110.7 771.8Z" fill="#bedde2" stroke="#bedde2"></path><path d="M116.7 818.4L173.2 867.4L157.2 791.1Z" fill="#80a5b0" stroke="#80a5b0"></path><path d="M140.7 245.5L97.1 248.5L128.1 276.8Z" fill="#80a5b0" stroke="#80a5b0"></path><path d="M428 309.8L428 269.5L391.4 258.5Z" fill="#94b7c0" stroke="#94b7c0"></path><path d="M0 721.8L0 751.1L18.6 757.1Z" fill="#80a5b0" stroke="#80a5b0"></path><path d="M66.6 829.4L83.1 835.4L97.1 821.1Z" fill="#bedde2" stroke="#bedde2"></path><path d="M428 837.4L428 809.1L361.9 821.1Z" fill="#0a3f55" stroke="#0a3f55"></path><path d="M361.9 821.1L428 809.1L372.4 794.4Z" fill="#355f72" stroke="#355f72"></path><path d="M59.6 281.8L0 303.8L82.6 335.1Z" fill="#0a3f55" stroke="#0a3f55"></path><path d="M0 301.1L0 303.8L59.6 281.8Z" fill="#d3f0f4" stroke="#d3f0f4"></path><path d="M341.9 204.2L267.8 199.5L284.3 236.5Z" fill="#a9cad1" stroke="#a9cad1"></path><path d="M284.3 236.5L267.8 199.5L225.2 245.5Z" fill="#94b7c0" stroke="#94b7c0"></path><path d="M140.7 245.5L109.1 222.2L97.1 248.5Z" fill="#94b7c0" stroke="#94b7c0"></path><path d="M341.9 204.2L340.9 285.1L391.4 258.5Z" fill="#355f72" stroke="#355f72"></path><path d="M0 219.2L0 301.1L59.6 281.8Z" fill="#a9cad1" stroke="#a9cad1"></path><path d="M92.1 870.7L173.2 867.4L116.7 818.4Z" fill="#bedde2" stroke="#bedde2"></path><path d="M66.6 829.4L110.7 771.8L18.6 757.1Z" fill="#6d93a0" stroke="#6d93a0"></path><path d="M97.1 821.1L92.1 870.7L116.7 818.4Z" fill="#80a5b0" stroke="#80a5b0"></path><path d="M132.7 197.2L109.1 222.2L140.7 245.5Z" fill="#80a5b0" stroke="#80a5b0"></path><path d="M97.1 248.5L27.6 197.5L59.6 281.8Z" fill="#d3f0f4" stroke="#d3f0f4"></path><path d="M0 805.4L66.6 829.4L18.6 757.1Z" fill="#5a8190" stroke="#5a8190"></path><path d="M218.8 900.7L272.3 879.7L242.8 824.4Z" fill="#477081" stroke="#477081"></path><path d="M354.4 871.7L428 837.4L361.9 821.1Z" fill="#a9cad1" stroke="#a9cad1"></path><path d="M428 218.2L341.9 204.2L391.4 258.5Z" fill="#0a3f55" stroke="#0a3f55"></path><path d="M354.4 871.7L361.9 821.1L334.9 834.4Z" fill="#5a8190" stroke="#5a8190"></path><path d="M316.9 907.7L354.4 871.7L334.9 834.4Z" fill="#224f63" stroke="#224f63"></path><path d="M192.2 176.9L202.8 182.2L198.2 168.2Z" fill="#477081" stroke="#477081"></path><path d="M267.8 199.5L202.8 182.2L225.2 245.5Z" fill="#94b7c0" stroke="#94b7c0"></path><path d="M192.2 176.9L132.7 197.2L140.7 245.5Z" fill="#a9cad1" stroke="#a9cad1"></path><path d="M109.1 222.2L48.6 187.2L97.1 248.5Z" fill="#bedde2" stroke="#bedde2"></path><path d="M198.2 168.2L202.8 182.2L271.3 163.2Z" fill="#5a8190" stroke="#5a8190"></path><path d="M202.8 182.2L192.2 176.9L140.7 245.5Z" fill="#d3f0f4" stroke="#d3f0f4"></path><path d="M0 751.1L0 805.4L18.6 757.1Z" fill="#355f72" stroke="#355f72"></path><path d="M92.1 870.7L97.1 821.1L83.1 835.4Z" fill="#0a3f55" stroke="#0a3f55"></path><path d="M215.2 905.7L218.8 900.7L173.2 867.4Z" fill="#224f63" stroke="#224f63"></path><path d="M173.2 867.4L218.8 900.7L242.8 824.4Z" fill="#80a5b0" stroke="#80a5b0"></path><path d="M272.3 879.7L316.9 907.7L334.9 834.4Z" fill="#355f72" stroke="#355f72"></path><path d="M92.1 870.7L83.1 835.4L42.6 866.7Z" fill="#a9cad1" stroke="#a9cad1"></path><path d="M428 269.5L428 218.2L391.4 258.5Z" fill="#5a8190" stroke="#5a8190"></path><path d="M271.3 163.2L202.8 182.2L267.8 199.5Z" fill="#477081" stroke="#477081"></path><path d="M42.6 866.7L83.1 835.4L66.6 829.4Z" fill="#80a5b0" stroke="#80a5b0"></path><path d="M271.3 163.2L267.8 199.5L299.3 148.9Z" fill="#477081" stroke="#477081"></path><path d="M192.2 176.9L175.7 135.9L132.7 197.2Z" fill="#d3f0f4" stroke="#d3f0f4"></path><path d="M170.7 914.7L215.2 905.7L173.2 867.4Z" fill="#bedde2" stroke="#bedde2"></path><path d="M218.8 900.7L306.3 926L272.3 879.7Z" fill="#bedde2" stroke="#bedde2"></path><path d="M299.3 148.9L267.8 199.5L341.9 204.2Z" fill="#6d93a0" stroke="#6d93a0"></path><path d="M306.3 926L316.9 907.7L272.3 879.7Z" fill="#355f72" stroke="#355f72"></path><path d="M354.4 871.7L428 888.7L428 837.4Z" fill="#5a8190" stroke="#5a8190"></path><path d="M92.1 870.7L170.7 914.7L173.2 867.4Z" fill="#0a3f55" stroke="#0a3f55"></path><path d="M215.2 905.7L306.3 926L218.8 900.7Z" fill="#6d93a0" stroke="#6d93a0"></path><path d="M0 805.4L42.6 866.7L66.6 829.4Z" fill="#bedde2" stroke="#bedde2"></path><path d="M73.6 926L179.7 926L170.7 914.7Z" fill="#d3f0f4" stroke="#d3f0f4"></path><path d="M340.4 131.6L299.3 148.9L341.9 204.2Z" fill="#d3f0f4" stroke="#d3f0f4"></path><path d="M247.8 101.9L175.7 135.9L198.2 168.2Z" fill="#bedde2" stroke="#bedde2"></path><path d="M197.2 926L215.2 905.7L170.7 914.7Z" fill="#0a3f55" stroke="#0a3f55"></path><path d="M197.2 926L200.8 926L215.2 905.7Z" fill="#0a3f55" stroke="#0a3f55"></path><path d="M179.7 926L197.2 926L170.7 914.7Z" fill="#94b7c0" stroke="#94b7c0"></path><path d="M200.8 926L306.3 926L215.2 905.7Z" fill="#224f63" stroke="#224f63"></path><path d="M382.4 926L428 888.7L354.4 871.7Z" fill="#5a8190" stroke="#5a8190"></path><path d="M73.6 926L170.7 914.7L92.1 870.7Z" fill="#5a8190" stroke="#5a8190"></path><path d="M367.9 926L354.4 871.7L316.9 907.7Z" fill="#d3f0f4" stroke="#d3f0f4"></path><path d="M116.1 138.9L48.6 187.2L132.7 197.2Z" fill="#5a8190" stroke="#5a8190"></path><path d="M132.7 197.2L48.6 187.2L109.1 222.2Z" fill="#477081" stroke="#477081"></path><path d="M175.7 135.9L192.2 176.9L198.2 168.2Z" fill="#477081" stroke="#477081"></path><path d="M27.6 197.5L0 219.2L59.6 281.8Z" fill="#6d93a0" stroke="#6d93a0"></path><path d="M428 218.2L383.4 159.2L341.9 204.2Z" fill="#0a3f55" stroke="#0a3f55"></path><path d="M48.6 187.2L27.6 197.5L97.1 248.5Z" fill="#94b7c0" stroke="#94b7c0"></path><path d="M170.2 119.6L175.7 135.9L247.8 101.9Z" fill="#0a3f55" stroke="#0a3f55"></path><path d="M306.3 926L367.9 926L316.9 907.7Z" fill="#a9cad1" stroke="#a9cad1"></path><path d="M367.9 926L382.4 926L354.4 871.7Z" fill="#94b7c0" stroke="#94b7c0"></path><path d="M383.4 159.2L340.4 131.6L341.9 204.2Z" fill="#d3f0f4" stroke="#d3f0f4"></path><path d="M247.8 101.9L198.2 168.2L271.3 163.2Z" fill="#d3f0f4" stroke="#d3f0f4"></path><path d="M175.7 135.9L116.1 138.9L132.7 197.2Z" fill="#a9cad1" stroke="#a9cad1"></path><path d="M0 173.9L0 196.5L27.6 197.5Z" fill="#a9cad1" stroke="#a9cad1"></path><path d="M0 173.9L27.6 197.5L48.6 187.2Z" fill="#6d93a0" stroke="#6d93a0"></path><path d="M27.6 197.5L0 196.5L0 219.2Z" fill="#355f72" stroke="#355f72"></path><path d="M428 218.2L395.4 142.9L383.4 159.2Z" fill="#d3f0f4" stroke="#d3f0f4"></path><path d="M383.4 159.2L370.9 131.9L340.4 131.6Z" fill="#5a8190" stroke="#5a8190"></path><path d="M247.8 101.9L271.3 163.2L299.3 148.9Z" fill="#477081" stroke="#477081"></path><path d="M175.7 135.9L170.2 119.6L116.1 138.9Z" fill="#355f72" stroke="#355f72"></path><path d="M395.4 142.9L370.9 131.9L383.4 159.2Z" fill="#355f72" stroke="#355f72"></path><path d="M265.8 92.6L247.8 101.9L299.3 148.9Z" fill="#a9cad1" stroke="#a9cad1"></path><path d="M67.1 926L92.1 870.7L42.6 866.7Z" fill="#5a8190" stroke="#5a8190"></path><path d="M67.1 926L73.6 926L92.1 870.7Z" fill="#bedde2" stroke="#bedde2"></path><path d="M0 892.7L67.1 926L42.6 866.7Z" fill="#d3f0f4" stroke="#d3f0f4"></path><path d="M382.4 926L428 926L428 888.7Z" fill="#bedde2" stroke="#bedde2"></path><path d="M0 805.4L0 892.7L42.6 866.7Z" fill="#224f63" stroke="#224f63"></path><path d="M265.8 92.6L299.3 148.9L313.3 90.6Z" fill="#d3f0f4" stroke="#d3f0f4"></path><path d="M74.6 111.6L48.6 187.2L116.1 138.9Z" fill="#224f63" stroke="#224f63"></path><path d="M48.6 119.9L0 173.9L48.6 187.2Z" fill="#5a8190" stroke="#5a8190"></path><path d="M395.4 142.9L368.9 114.6L370.9 131.9Z" fill="#0a3f55" stroke="#0a3f55"></path><path d="M370.9 131.9L368.9 114.6L340.4 131.6Z" fill="#bedde2" stroke="#bedde2"></path><path d="M219.8 47.3L139.7 85.6L170.2 119.6Z" fill="#80a5b0" stroke="#80a5b0"></path><path d="M313.3 90.6L299.3 148.9L340.4 131.6Z" fill="#80a5b0" stroke="#80a5b0"></path><path d="M395.4 142.9L428 127.9L368.9 114.6Z" fill="#477081" stroke="#477081"></path><path d="M428 218.2L428 127.9L395.4 142.9Z" fill="#94b7c0" stroke="#94b7c0"></path><path d="M292.9 71.3L359.9 0L308.3 0Z" fill="#0a3f55" stroke="#0a3f55"></path><path d="M368.9 114.6L313.3 90.6L340.4 131.6Z" fill="#94b7c0" stroke="#94b7c0"></path><path d="M88.1 84.6L74.6 111.6L116.1 138.9Z" fill="#224f63" stroke="#224f63"></path><path d="M139.7 85.6L116.1 138.9L170.2 119.6Z" fill="#6d93a0" stroke="#6d93a0"></path><path d="M74.6 111.6L48.6 119.9L48.6 187.2Z" fill="#bedde2" stroke="#bedde2"></path><path d="M0 892.7L0 926L67.1 926Z" fill="#80a5b0" stroke="#80a5b0"></path><path d="M219.8 47.3L247.8 101.9L265.8 92.6Z" fill="#0a3f55" stroke="#0a3f55"></path><path d="M219.8 47.3L170.2 119.6L247.8 101.9Z" fill="#477081" stroke="#477081"></path><path d="M74.6 111.6L88.1 84.6L48.6 119.9Z" fill="#5a8190" stroke="#5a8190"></path><path d="M393.4 60.3L313.3 90.6L368.9 114.6Z" fill="#477081" stroke="#477081"></path><path d="M313.3 90.6L292.9 71.3L265.8 92.6Z" fill="#94b7c0" stroke="#94b7c0"></path><path d="M83.6 63.3L88.1 84.6L139.7 85.6Z" fill="#bedde2" stroke="#bedde2"></path><path d="M139.7 85.6L88.1 84.6L116.1 138.9Z" fill="#477081" stroke="#477081"></path><path d="M0 29.3L0 122.6L48.6 119.9Z" fill="#477081" stroke="#477081"></path><path d="M48.6 119.9L0 122.6L0 173.9Z" fill="#94b7c0" stroke="#94b7c0"></path><path d="M292.9 71.3L219.8 47.3L265.8 92.6Z" fill="#bedde2" stroke="#bedde2"></path><path d="M428 127.9L393.4 60.3L368.9 114.6Z" fill="#0a3f55" stroke="#0a3f55"></path><path d="M292.9 71.3L225.2 33.3L219.8 47.3Z" fill="#94b7c0" stroke="#94b7c0"></path><path d="M150.7 44.3L83.6 63.3L139.7 85.6Z" fill="#355f72" stroke="#355f72"></path><path d="M88.1 84.6L83.6 63.3L48.6 119.9Z" fill="#224f63" stroke="#224f63"></path><path d="M219.8 47.3L150.7 44.3L139.7 85.6Z" fill="#94b7c0" stroke="#94b7c0"></path><path d="M276.3 10.3L225.2 33.3L292.9 71.3Z" fill="#355f72" stroke="#355f72"></path><path d="M219.8 47.3L225.2 33.3L150.7 44.3Z" fill="#477081" stroke="#477081"></path><path d="M428 127.9L428 59.6L393.4 60.3Z" fill="#a9cad1" stroke="#a9cad1"></path><path d="M308.3 0L276.3 10.3L292.9 71.3Z" fill="#80a5b0" stroke="#80a5b0"></path><path d="M428 59.6L428 58.3L393.4 60.3Z" fill="#355f72" stroke="#355f72"></path><path d="M292.9 71.3L313.3 90.6L359.9 0Z" fill="#80a5b0" stroke="#80a5b0"></path><path d="M225.2 33.3L220.8 0L150.7 44.3Z" fill="#80a5b0" stroke="#80a5b0"></path><path d="M276.3 10.3L229.2 0L225.2 33.3Z" fill="#bedde2" stroke="#bedde2"></path><path d="M150.7 44.3L130.1 9.3L83.6 63.3Z" fill="#94b7c0" stroke="#94b7c0"></path><path d="M229.2 0L220.8 0L225.2 33.3Z" fill="#bedde2" stroke="#bedde2"></path><path d="M143.7 0L130.1 9.3L150.7 44.3Z" fill="#94b7c0" stroke="#94b7c0"></path><path d="M83.6 63.3L0 29.3L48.6 119.9Z" fill="#224f63" stroke="#224f63"></path><path d="M359.9 0L313.3 90.6L393.4 60.3Z" fill="#d3f0f4" stroke="#d3f0f4"></path><path d="M276.3 10.3L308.3 0L229.2 0Z" fill="#94b7c0" stroke="#94b7c0"></path><path d="M220.8 0L143.7 0L150.7 44.3Z" fill="#a9cad1" stroke="#a9cad1"></path><path d="M392.4 0L359.9 0L393.4 60.3Z" fill="#a9cad1" stroke="#a9cad1"></path><path d="M428 58.3L392.4 0L393.4 60.3Z" fill="#224f63" stroke="#224f63"></path><path d="M143.7 0L77.1 0L130.1 9.3Z" fill="#224f63" stroke="#224f63"></path><path d="M130.1 9.3L77.1 0L83.6 63.3Z" fill="#355f72" stroke="#355f72"></path><path d="M66.6 0L0 29.3L83.6 63.3Z" fill="#80a5b0" stroke="#80a5b0"></path><path d="M77.1 0L66.6 0L83.6 63.3Z" fill="#355f72" stroke="#355f72"></path><path d="M428 58.3L428 0L392.4 0Z" fill="#80a5b0" stroke="#80a5b0"></path><path d="M66.6 0L0 0L0 29.3Z" fill="#94b7c0" stroke="#94b7c0"></path></g></svg>