<svg width="287" height="177" viewBox="0 0 287 177" fill="none" xmlns="http://www.w3.org/2000/svg">
<path d="M130.817 56.7093V42.8624H71.7862V56.7093H130.817Z" fill="white"/>
<path d="M130.817 56.7093V42.8624H71.7862V56.7093H130.817Z" fill="#7A7D68"/>
<path d="M130.817 56.7093V42.8624H71.7862V56.7093H130.817Z" stroke="#B8BEB4"/>
<path d="M127.902 139.79V56.7092H74.7014V139.79H127.902Z" fill="white"/>
<path d="M127.902 139.79V56.7092H74.7014V139.79H127.902Z" fill="#D6D9D0"/>
<path d="M127.902 139.79V56.7092H74.7014V139.79H127.902Z" stroke="#B8BEB4"/>
<path d="M127.902 152.179V139.79H73.9726V152.179H127.902Z" fill="white"/>
<path d="M127.902 152.179V139.79H73.9726V152.179H127.902Z" fill="#7A7D68"/>
<path d="M127.902 152.179V139.79H73.9726V152.179H127.902Z" stroke="#B8BEB4"/>
<path d="M67.2169 40.3541H75.4301V35.2526H70.3287C68.8711 35.2526 65.8102 34.6696 65.2272 32.3375V15.5756C65.2272 13.2497 65.373 12.6604 68.8711 12.6604H75.4301C75.4301 10.717 75.7216 6.8302 76.8877 6.8302H66.0552C61 6.83021 61 10.4741 61 13.2497V36.0744C61 38.9275 65.1446 40.1163 67.2169 40.3541Z" fill="#7A7D68" stroke="#B8BEB4"/>
<path d="M127.174 8.60972V42.8624H75.4302C75.4302 33.7951 74.9929 14.44 76.159 8.60972C77.325 2.77948 82.4751 1.32192 84.9043 1.32192C93.1638 1.07899 111.432 0.738894 118.428 1.32192C125.425 1.90494 127.174 6.42338 127.174 8.60972Z" fill="white"/>
<path d="M127.174 8.60972V42.8624H75.4302C75.4302 33.7951 74.9929 14.44 76.159 8.60972C77.325 2.77948 82.4751 1.32192 84.9043 1.32192C93.1638 1.07899 111.432 0.738894 118.428 1.32192C125.425 1.90494 127.174 6.42338 127.174 8.60972Z" fill="#7A7D68"/>
<path d="M127.174 8.60972V42.8624H75.4302C75.4302 33.7951 74.9929 14.44 76.159 8.60972C77.325 2.77948 82.4751 1.32192 84.9043 1.32192C93.1638 1.07899 111.432 0.738894 118.428 1.32192C125.425 1.90494 127.174 6.42338 127.174 8.60972Z" stroke="#B8BEB4"/>
<path d="M79.8027 117.198V131.045" stroke="#7A7D68"/>
<path d="M88.5481 6.42343C85.633 5.69465 79.9485 6.56919 80.5315 15.8976" stroke="#D6D9D0"/>
<path d="M80.5315 20.999V37.0322" stroke="#D6D9D0"/>
<path d="M79.8027 66.1833V109.181" stroke="#7A7D68"/>
<path d="M224.976 37.6837C225.559 35.3516 215.501 29.4224 213.315 29.4224L202.383 92.8262C203.841 92.8262 206.756 93.071 209.671 93.071C212.586 93.071 214.287 90.1559 214.773 88.6983C217.931 72.6652 224.393 40.0158 224.976 37.6837Z" fill="#D6D9D0" stroke="#7A7D68"/>
<path d="M90.1511 99.6301L91.6087 152.102C91.722 156.183 94.571 158.661 95.9814 159.39L157.928 176.152C163.758 177.318 169.588 175.18 171.775 173.966L198.011 157.932C202.092 155.6 203.598 151.616 203.841 149.916C204.57 133.154 205.298 99.1188 205.298 96.715C205.298 93.0711 200.197 92.3423 198.011 91.6135L140.437 79.953C134.607 79.37 131.692 79.7101 130.963 79.953L98.1677 90.8847C91.6087 93.0711 90.1511 97.6867 90.1511 99.6301Z" fill="#D6D9D0" stroke="#7A7D68"/>
<path d="M189.265 112.748C186.35 109.833 183.435 112.748 183.435 116.392L206.756 145.543C212.586 146.126 212.1 141.899 211.129 139.713L189.265 112.748Z" fill="#7A7D68" stroke="#7A7D68"/>
<path d="M94.5237 98.1725L159.385 113.477C160.357 113.72 163.466 113.768 168.13 112.019L202.383 96.715" stroke="#7A7D68"/>
<path d="M105.653 92.5468C97.6976 94.7698 101.864 96.2518 104.942 96.7149C121.869 101.088 155.887 108.521 159.385 109.104C162.883 109.687 164.73 109.347 165.215 109.104L193.638 96.7149C197.719 94.9658 192.909 94.5285 191.451 93.7998L141.166 82.753C137.188 81.6415 133.353 82.2899 131.932 82.753L105.653 92.5468Z" fill="#B8BEB4" stroke="#7A7D68"/>
<path d="M116.387 109.464V104.003L138.251 108.782V112.195C138.251 115.472 136.605 115.836 135.43 115.609L119.914 112.195C117.092 111.649 116.387 110.147 116.387 109.464Z" fill="#B8BEB4" stroke="#7A7D68"/>
<path d="M164.487 121.493V171.779" stroke="#7A7D68"/>
<rect x="145.987" y="16.1614" width="73.1765" height="62.3076" rx="2.5" transform="rotate(10.9513 145.987 16.1614)" fill="#B8BEB4" stroke="#7A7D68"/>
<path d="M175.418 15.8203C173.669 15.8203 172.746 19.7071 172.503 21.6506L194.367 25.2945C195.533 20.6303 193.881 18.9784 192.909 18.7354L175.418 15.8203Z" fill="#B8BEB4" stroke="#7A7D68"/>
<path d="M29.952 65.2V65.84H9.792V85.04H28.48V85.68H9.792V109.36H31.36V110H4.48V65.2H29.952ZM43.417 65.2V93.488L64.089 65.2L64.601 65.648L53.145 81.264L70.169 110H64.217L49.881 85.744L43.417 94.64V110H38.105V65.2H43.417ZM74.7505 110H73.9825L93.1185 65.2L93.8225 64.88L109.951 110H104.511L99.5185 95.92H80.8305L74.7505 110ZM91.1345 72.112L81.0865 95.28H99.3265L91.1345 72.112ZM114.563 110H113.795L132.931 65.2L133.635 64.88L149.763 110H144.323L139.331 95.92H120.643L114.563 110ZM130.947 72.112L120.899 95.28H139.139L130.947 72.112ZM179.784 67.888C175.901 66.3947 172.232 65.648 168.776 65.648C165.362 65.648 162.696 66.3733 160.776 67.824C158.856 69.2747 157.896 71.28 157.896 73.84C157.896 76.9547 159.517 79.3653 162.76 81.072C164.21 81.7973 165.789 82.48 167.496 83.12C169.245 83.7173 170.994 84.4 172.744 85.168C174.493 85.936 176.093 86.8107 177.544 87.792C178.994 88.7733 180.168 90.1387 181.064 91.888C181.96 93.5947 182.408 95.792 182.408 98.48C182.408 101.125 181.661 103.387 180.168 105.264C178.674 107.141 176.861 108.421 174.728 109.104C172.637 109.744 170.184 110.064 167.368 110.064C162.12 110.064 157.64 108.763 153.928 106.16L154.248 105.648C155.656 106.757 157.469 107.675 159.688 108.4C161.949 109.083 164.253 109.424 166.6 109.424C170.056 109.424 173 108.635 175.432 107.056C177.906 105.435 179.144 103.067 179.144 99.952C179.144 96.5387 177.522 93.872 174.28 91.952C172.829 91.0987 171.229 90.3093 169.48 89.584C167.773 88.8587 166.045 88.112 164.296 87.344C162.546 86.5333 160.946 85.6373 159.496 84.656C156.253 82.5227 154.632 79.4933 154.632 75.568C154.632 72.4533 155.677 69.936 157.768 68.016C159.858 66.0533 162.994 65.072 167.176 65.072C171.4 65.072 175.688 65.7973 180.04 67.248L179.784 67.888ZM214.065 110C212.316 110 210.972 109.616 210.033 108.848C209.137 108.08 208.668 107.312 208.625 106.544L208.561 105.456V85.36C208.561 81.9893 207.665 79.8347 205.873 78.896C205.02 78.4693 203.932 78.256 202.609 78.256C199.964 78.256 197.574 79.344 195.441 81.52C193.35 83.6533 192.305 85.5733 192.305 87.28V110H187.825V62.064H192.305V85.296C192.988 83.4613 194.289 81.7547 196.209 80.176C198.129 78.5547 200.284 77.744 202.673 77.744C206.812 77.744 209.564 78.4693 210.929 79.92C212.337 81.328 213.041 83.1627 213.041 85.424V105.456C213.041 106.693 213.276 107.653 213.745 108.336C214.257 108.976 214.748 109.317 215.217 109.36L215.985 109.488H217.969V110H214.065ZM235.978 110.256C231.498 110.256 227.85 108.976 225.034 106.416C222.218 103.856 220.81 99.9093 220.81 94.576C220.81 89.2427 222.261 85.104 225.162 82.16C228.106 79.216 231.818 77.744 236.298 77.744C240.821 77.744 244.49 79.024 247.306 81.584C250.122 84.144 251.53 88.0907 251.53 93.424C251.53 98.7573 250.058 102.896 247.114 105.84C244.213 108.784 240.501 110.256 235.978 110.256ZM236.426 78.256C233.183 78.256 230.495 79.7067 228.362 82.608C226.229 85.4667 225.162 89.4773 225.162 94.64C225.162 99.76 226.143 103.557 228.106 106.032C230.069 108.507 232.671 109.744 235.914 109.744C239.157 109.744 241.845 108.315 243.978 105.456C246.111 102.555 247.178 98.544 247.178 93.424C247.178 88.2613 246.197 84.4427 244.234 81.968C242.271 79.4933 239.669 78.256 236.426 78.256ZM256.013 78H260.493V85.936C261.218 83.9733 262.562 82.1173 264.525 80.368C266.487 78.6187 268.706 77.744 271.181 77.744C279.842 77.744 284.173 82.8213 284.173 92.976C284.173 104.496 278.583 110.256 267.405 110.256C265.399 110.256 263.095 109.787 260.493 108.848V126H256.013V78ZM271.117 78.256C268.471 78.256 266.082 79.408 263.949 81.712C261.815 83.9733 260.663 86.0213 260.493 87.856V108.272C263.095 109.253 265.378 109.744 267.341 109.744C275.575 109.744 279.693 104.133 279.693 92.912C279.693 83.1413 276.834 78.256 271.117 78.256Z" fill="black"/>
</svg>
